# xmcd
#
# Track frame offsets: 
#        150
#        15701
#        26945
#        34630
#        43264
#        56322
#        69449
#        79528
#        93369
#        108569
#        124601
#        137025
#        145312
#        165049
#        177542
#        190716
#        206121
#        221971
#        232750
#
# Disc length: 3362 seconds
#
# Revision: 0
# Processed by: cddbd v1.5.2PL0 Copyright (c) Steve Scherf et al.
# Submitted via: ExactAudioCopy v0.99pb5
#
DISCID=060d2013
DTITLE=Cream  - Prehistoric Sounds (Silver Rarities) 
DYEAR=1900
DGENRE=
TTITLE0=Sweet Wine
TTITLE1=Wrapping Paper
TTITLE2=Steppin' Out
TTITLE3=Four 'Till Late
TTITLE4=I Feel Free
TTITLE5=Nsu
TTITLE6=Take it Back
TTITLE7=Born Under a Bad Sign
TTITLE8=Outside Woman Blues
TTITLE9=Cat Squirrel
TTITLE10=Train Time
TTITLE11=Hey Lawdy Mama
TTITLE12=I'm So Glad
TTITLE13=Strange Brew
TTITLE14=Tales of Brave Ulysses
TTITLE15=We're Going Wrong
TTITLE16=Steppin' Out
TTITLE17=Swlabr
TTITLE18=Politician
EXTD=
EXTT0=
EXTT1=
EXTT2=
EXTT3=
EXTT4=
EXTT5=
EXTT6=
EXTT7=
EXTT8=
EXTT9=
EXTT10=
EXTT11=
EXTT12=
EXTT13=
EXTT14=
EXTT15=
EXTT16=
EXTT17=
EXTT18=
PLAYORDER=
